<?xml version="1.0" encoding="utf-8"?>
<!-- Generator: Adobe Illustrator 21.0.0, SVG Export Plug-In . SVG Version: 6.00 Build 0)  -->
<svg version="1.1" id="Capa_1" xmlns="http://www.w3.org/2000/svg" xmlns:xlink="http://www.w3.org/1999/xlink" x="0px" y="0px"
	 viewBox="0 0 512 352.1" style="enable-background:new 0 0 512 352.1;" xml:space="preserve">
<style type="text/css">
	.st0{fill:#282828;}
</style>
<g>
	<g id="_x33_6_24_">
		<g>
			<path class="st0" d="M157.9,35h158c4.2,0,7.5-3.4,7.5-7.5s-3.4-7.5-7.5-7.5h-158c-4.2,0-7.5,3.4-7.5,7.5S153.8,35,157.9,35z"/>
			<path class="st0" d="M16.6,108.5h158c4.2,0,7.5-3.4,7.5-7.5c0-4.2-3.4-7.5-7.5-7.5h-158c-4.2,0-7.5,3.4-7.5,7.5
				C9.1,105.1,12.5,108.5,16.6,108.5z"/>
			<path class="st0" d="M59,185.8c0,4.2,3.4,7.5,7.5,7.5h158c4.2,0,7.5-3.4,7.5-7.5c0-4.2-3.4-7.5-7.5-7.5h-158
				C62.4,178.3,59,181.6,59,185.8z"/>
			<path class="st0" d="M149.5,273.2H7.5c-4.2,0-7.5,3.4-7.5,7.5c0,4.2,3.4,7.5,7.5,7.5h141.9c4.2,0,7.5-3.4,7.5-7.5
				C157,276.5,153.6,273.2,149.5,273.2z"/>
			<path class="st0" d="M404.9,82.1c22.7,0,41.1-18.4,41.1-41.1S427.5,0,404.9,0c-22.7,0-41.1,18.4-41.1,41.1
				C363.8,63.7,382.2,82.1,404.9,82.1z"/>
			<path class="st0" d="M472.4,70.3c-23.6,33-55.1,36.8-89.1,16.7c-2.3-1.4-12.6-7-14.8-8.4c-54.6-32.4-109.2-19.7-145.8,31.5
				c-15.6,21.8,20.4,42.5,35.8,20.9c18.9-26.5,43-34.1,69.3-25.8c-13.5,23.4-25.2,46.6-41.9,79.6c-16.6,33-53.3,59.4-88.6,38.8
				c-25.4-14.9-48.4,21.7-23,36.5c48.1,28.1,104.6,10.9,133.4-25.7c1,0.5,2.1,1,3.2,1.4c23.5,8.2,54.4,30,63.8,37.8
				c9.4,7.7,25.5,47.1,35.1,67c11.6,24,49.2,6.5,37.5-17.6c-10.9-22.5-29.1-67.3-43.3-78.7c-11.4-9.1-33.6-26-52.4-35.6
				c12.7-24.6,26-49,39.9-72.9c44.4,13.6,86.7-2.4,116.7-44.6C523.7,69.4,487.8,48.7,472.4,70.3z"/>
		</g>
	</g>
</g>
</svg>
