<?xml version="1.0" encoding="iso-8859-1"?>
<!-- Generator: Adobe Illustrator 17.1.0, SVG Export Plug-In . SVG Version: 6.00 Build 0)  -->
<!DOCTYPE svg PUBLIC "-//W3C//DTD SVG 1.1//EN" "http://www.w3.org/Graphics/SVG/1.1/DTD/svg11.dtd">
<svg xmlns="http://www.w3.org/2000/svg" xmlns:xlink="http://www.w3.org/1999/xlink" version="1.1" id="Capa_1" x="0px" y="0px" viewBox="0 0 91.7 91.7" style="enable-background:new 0 0 91.7 91.7;" xml:space="preserve" width="512px" height="512px">
<g>
	<path d="M62.2,48.202L53.366,26.92c-0.532-1.281-1.913-2.615-3.212-3.102l-3.296-1.234l-0.001,0l-2.683-1.005   c-0.337-0.126-0.69-0.19-1.049-0.19c-1.246,0-2.379,0.78-2.818,1.94l-10.83,28.575c-0.327,0.861-0.217,1.776,0.2,2.525   c0.043,0.121,0.073,0.242,0.132,0.363l6.093,12.606c0.502,1.039,0.58,2.896,0.166,3.975l-6.141,15.981   c-0.364,0.948-0.286,1.91,0.215,2.639c0.5,0.729,1.37,1.146,2.386,1.146h3.154c1.843,0,3.805-1.348,4.466-3.068l6.139-15.981   c0.604-1.573,0.56-4.021-0.101-5.57l-4.697-11.014l7.469-19.939l4.857,11.446c-1.762,0.983-2.958,2.865-2.958,5.023   c0,0.553,0.448,1,1,1s1-0.447,1-1c0-1.33,0.701-2.494,1.749-3.16l0.229,0.539c0.557,1.313,2.072,2.302,3.524,2.302   c0.083,0,0.167-0.004,0.25-0.01l1.52-0.119c0.063-0.005,0.119-0.025,0.18-0.033c0.021,0.159,0.049,0.317,0.049,0.482V90.7   c0,0.553,0.448,1,1,1s1-0.447,1-1V52.034c0-0.57-0.086-1.12-0.242-1.641C62.478,49.753,62.515,48.961,62.2,48.202z" fill="#282828"/>
	<path d="M48.29,19.693c1.149,0.431,2.348,0.648,3.565,0.648c4.218,0,8.045-2.654,9.524-6.604   c1.966-5.251-0.706-11.124-5.955-13.089C54.274,0.218,53.074,0,51.857,0c-4.217,0-8.044,2.654-9.524,6.604   c-0.953,2.543-0.858,5.306,0.267,7.778C43.726,16.854,45.746,18.74,48.29,19.693z" fill="#282828"/>
</g>
<g>
</g>
<g>
</g>
<g>
</g>
<g>
</g>
<g>
</g>
<g>
</g>
<g>
</g>
<g>
</g>
<g>
</g>
<g>
</g>
<g>
</g>
<g>
</g>
<g>
</g>
<g>
</g>
<g>
</g>
</svg>
