<?xml version="1.0" encoding="utf-8"?>
<!-- Generator: Adobe Illustrator 21.0.0, SVG Export Plug-In . SVG Version: 6.00 Build 0)  -->
<svg version="1.1" id="Capa_1" xmlns="http://www.w3.org/2000/svg" xmlns:xlink="http://www.w3.org/1999/xlink" x="0px" y="0px"
	 viewBox="0 0 512 512" style="enable-background:new 0 0 512 512;" xml:space="preserve">
<style type="text/css">
	.st0{fill:#282828;}
</style>
<g>
	<path class="st0" d="M344.1,305.7v197.3c0,5-4,9.1-9.1,9.1c-5,0-9-4.1-9-9.1V305.7c0-7.8-6.4-14.2-14.3-14.2
		c-7.8,0-14.2,6.4-14.2,14.2c0,5-4.1,9-9.1,9c-5,0-9.1-4-9.1-9c0-13.3,8-24.6,19.4-29.6c-23-34.1-35.7-71.8-42.6-103.2l-41.4,117.2
		c0,0.1-0.2,0.1-0.2,0.2c1.5,5,27,95.1-3.3,197.1c-3.1,10.3-12.4,16.8-22.6,16.8c-2.2,0-4.5-0.3-6.7-1
		c-12.5-3.6-19.6-16.8-15.9-29.2c24.1-81.2,7-155.7,3.7-168.6c-25.6-49.8-30.6-95.9-14.7-136.8c25.2-65.4,94.6-91.3,97.6-92.4
		c12.2-4.5,25.8,1.9,30.2,14c1.6,4.3,1.1,14.4,1.1,15.4c0,0.8,0.8,90.2,48.4,155.8c4.4,6.2,4.4,14.1,0.6,20.2
		C339.7,287.7,344.1,296.1,344.1,305.7z M365.9,46.1c0,25.5-20.7,46.2-46.2,46.2c-25.5,0-46.2-20.7-46.2-46.2
		c0-25.6,20.7-46.1,46.3-46.1C345.2,0,365.9,20.6,365.9,46.1z"/>
</g>
</svg>
