<?xml version="1.0" encoding="iso-8859-1"?>
<!-- Generator: Adobe Illustrator 19.0.0, SVG Export Plug-In . SVG Version: 6.00 Build 0)  -->
<svg version="1.1" id="Layer_1" xmlns="http://www.w3.org/2000/svg" xmlns:xlink="http://www.w3.org/1999/xlink" x="0px" y="0px"
	 viewBox="0 0 512 512" style="enable-background:new 0 0 512 512;" xml:space="preserve">
<path style="fill:#234848;" d="M337.628,341.244L270.58,481.275c-1.716,3.586-5.299,5.681-9.032,5.681
	c-1.446,0-2.914-0.314-4.305-0.978c-4.984-2.376-7.095-8.334-4.713-13.309l62.815-131.187l-46.6-23.269
	c-4.94-2.468-6.941-8.462-4.468-13.392c2.472-4.93,8.48-6.925,13.421-4.46l55.383,27.656
	C337.957,330.451,339.98,336.336,337.628,341.244z M284.927,194.537c-4.807-2.714-10.91-1.026-13.631,3.771L116.066,472.056
	c-2.72,4.797-1.028,10.888,3.78,13.601c1.556,0.879,3.248,1.297,4.916,1.297c3.487,0,6.874-1.823,8.715-5.068l155.231-273.747
	C291.427,203.343,289.735,197.251,284.927,194.537z"/>
<path style="fill:#D1141C;" d="M307.389,476.972c0,5.513-4.478,9.981-10.003,9.981h-35.832c-5.524,0-10.003-4.469-10.003-9.981
	c0-5.513,4.478-9.981,10.003-9.981h35.832C302.911,466.99,307.389,471.459,307.389,476.972z M160.605,466.99h-35.834
	c-5.524,0-10.003,4.469-10.003,9.981c0,5.513,4.478,9.981,10.003,9.981h35.834c5.524,0,10.003-4.469,10.003-9.981
	C170.608,471.459,166.131,466.99,160.605,466.99z"/>
<path style="fill:#FFBB5E;" d="M158.904,141.03c7.469-4.888,13.783-8.407,20.053-10.716v21.855c-2.785,1.516-5.732,3.361-9.08,5.554
	c-8.535,5.586-19.24,12.634-29.19,19.187c-12.9,8.494-24.041,15.83-28.329,18.584c-1.675,1.076-3.552,1.589-5.405,1.589
	c-3.288,0.001-6.507-1.615-8.419-4.579c-2.99-4.635-1.65-10.811,2.995-13.795c4.194-2.695,15.826-10.354,28.141-18.461
	C139.635,153.684,150.357,146.625,158.904,141.03z M510.406,120.057c-2.991-4.635-9.183-5.971-13.825-2.987
	c-4.291,2.757-15.442,10.1-28.356,18.603c-9.942,6.546-20.637,13.587-29.162,19.169c-2.134,1.396-4.1,2.648-5.971,3.769V181
	c5.275-2.266,10.705-5.386,16.943-9.468c8.54-5.591,19.25-12.643,29.207-19.2c12.328-8.117,23.972-15.784,28.169-18.482
	C512.057,130.868,513.397,124.692,510.406,120.057z"/>
<path style="fill:#415E5C;" d="M450.035,171.534c-15.105,9.886-25.494,14.178-40.337,14.178c-8.474,0-18.395-1.397-31.479-3.95
	c-0.039-0.007-0.077-0.016-0.116-0.022l-151.277-31.359c-32.415-6.32-38.805-4.537-56.949,7.341
	c-4.62,3.024-10.82,1.737-13.85-2.871c-3.03-4.609-1.742-10.797,2.877-13.821c23.73-15.533,35.811-17.252,71.817-10.23
	c0.039,0.009,0.077,0.017,0.116,0.023l151.276,31.358c32.416,6.321,38.804,4.538,56.951-7.338c4.619-3.024,10.82-1.74,13.85,2.871
	C455.943,162.324,454.654,168.51,450.035,171.534z"/>
<path style="fill:#FFCE76;" d="M328.604,25.044c23.218,0,42.041,18.781,42.041,41.949s-18.823,41.951-42.041,41.951
	c-23.216,0-42.039-18.781-42.039-41.949S305.388,25.044,328.604,25.044L328.604,25.044z"/>
<path style="fill:#FFBB5E;" d="M370.645,66.994c0,23.168-18.823,41.949-42.041,41.949c-16.066,0-30.022-8.998-37.099-22.216
	c5.895,3.142,12.625,4.929,19.774,4.929c23.218,0,42.041-18.781,42.041-41.949c0-7.135-1.791-13.851-4.94-19.733
	C361.628,37.035,370.645,50.961,370.645,66.994z"/>
<path style="fill:#97BAA8;" d="M189.7,257.858c0,5.513-4.478,9.981-10.003,9.981H35.23c-5.524,0-10.003-4.469-10.003-9.981
	c0-5.512,4.478-9.981,10.003-9.981h144.467C185.222,247.878,189.7,252.346,189.7,257.858z M137.789,308.258H95.077
	c-5.524,0-10.003,4.469-10.003,9.981c0,5.512,4.478,9.981,10.003,9.981h42.712c5.524,0,10.003-4.469,10.003-9.981
	C147.792,312.727,143.313,308.258,137.789,308.258z M12.253,312.441h-2.251C4.479,312.441,0,316.91,0,322.422
	c0,5.512,4.478,9.981,10.003,9.981h2.252c5.524,0,10.003-4.469,10.003-9.981C22.258,316.91,17.779,312.441,12.253,312.441z"/>
<g>
</g>
<g>
</g>
<g>
</g>
<g>
</g>
<g>
</g>
<g>
</g>
<g>
</g>
<g>
</g>
<g>
</g>
<g>
</g>
<g>
</g>
<g>
</g>
<g>
</g>
<g>
</g>
<g>
</g>
</svg>
