<?xml version="1.0" encoding="iso-8859-1"?>
<!-- Generator: Adobe Illustrator 19.0.0, SVG Export Plug-In . SVG Version: 6.00 Build 0)  -->
<svg version="1.1" id="Layer_1" xmlns="http://www.w3.org/2000/svg" xmlns:xlink="http://www.w3.org/1999/xlink" x="0px" y="0px"
	 viewBox="0 0 512 512" style="enable-background:new 0 0 512 512;" xml:space="preserve">
<path style="fill:#874D20;" d="M302.407,511.918c-0.432,0.055-0.863,0.081-1.288,0.081c-5.011,0-9.357-3.694-10.006-8.754
	l-36.614-285.343c-0.705-5.488,3.211-10.504,8.744-11.202c5.531-0.695,10.59,3.184,11.294,8.673l36.614,285.343
	C311.854,506.203,307.94,511.219,302.407,511.918z M235.797,338.554c-5.28-1.78-11.017,1.028-12.81,6.266L170.313,498.76
	c-1.793,5.239,1.036,10.928,6.318,12.705c1.076,0.363,2.17,0.534,3.247,0.534c4.207,0,8.135-2.629,9.563-6.801l52.674-153.939
	C243.907,346.021,241.078,340.333,235.797,338.554z"/>
<path style="fill:#0D3131;" d="M350.884,501.977c0,5.533-4.521,10.017-10.1,10.017h-39.659c-5.579,0-10.1-4.484-10.1-10.017
	c0-5.533,4.521-10.017,10.1-10.017h39.659C346.363,491.96,350.884,496.444,350.884,501.977z M219.536,491.96h-39.659
	c-5.579,0-10.1,4.484-10.1,10.017c0,5.533,4.521,10.017,10.1,10.017h39.659c5.579,0,10.1-4.484,10.1-10.017
	C229.636,496.444,225.115,491.96,219.536,491.96z"/>
<path style="fill:#FFBB5E;" d="M171.659,305.111c2.014,5.159-0.571,10.961-5.772,12.958c-5.202,1.997-11.051-0.567-13.065-5.726
	l-17.863-45.769h21.66L171.659,305.111z M391.615,328.895l-15.806-38.948h-21.774l18.844,46.428
	c1.586,3.907,5.372,6.281,9.373,6.281c1.255,0,2.532-0.235,3.768-0.728C391.192,339.863,393.697,334.028,391.615,328.895z"/>
<path style="fill:#415E5C;" d="M371.99,307.366c-1.235,0.493-2.513,0.727-3.768,0.727c-4,0-7.787-2.373-9.373-6.28l-32.268-79.508
	c-12.042-29.676-26.098-59.026-53.576-63.514c-7.592-1.239-57.965-1.062-64.939,0.229c-28.566,5.287-48.032,34.806-65.523,64.585
	l-1.618,2.758l18.843,48.279c2.014,5.16-0.571,10.961-5.772,12.958c-5.202,1.998-11.051-0.565-13.065-5.725l-20.597-52.773
	c-1.107-2.839-0.855-6.024,0.69-8.654l4.063-6.924c19.848-33.794,42.316-67.359,79.271-74.198
	c9.368-1.737,61.804-1.959,71.928-0.304c37.823,6.179,55.466,42.366,69.033,75.802l32.268,79.508
	C379.671,299.465,377.164,305.3,371.99,307.366z"/>
<path style="fill:#FFCE76;" d="M260.33,0c25.698,0,46.527,20.635,46.527,46.087c0,25.453-20.829,46.087-46.527,46.087
	S213.8,71.54,213.8,46.087C213.801,20.635,234.632,0,260.33,0L260.33,0z"/>
<path style="fill:#FFBB5E;" d="M306.859,46.087c0,25.453-20.829,46.087-46.527,46.087c-17.952,0-33.519-10.076-41.279-24.824
	c6.438,3.335,13.755,5.23,21.524,5.23c25.698,0,46.527-20.634,46.527-46.087c0-7.672-1.903-14.9-5.251-21.264
	C296.711,12.925,306.859,28.328,306.859,46.087z"/>
<g>
</g>
<g>
</g>
<g>
</g>
<g>
</g>
<g>
</g>
<g>
</g>
<g>
</g>
<g>
</g>
<g>
</g>
<g>
</g>
<g>
</g>
<g>
</g>
<g>
</g>
<g>
</g>
<g>
</g>
</svg>
